<svg width="28" height="26" viewBox="0 0 28 26" fill="none" xmlns="http://www.w3.org/2000/svg">
<path d="M4.99995 6.33334H23.3866C23.7592 6.33336 24.1276 6.41144 24.4681 6.56255C24.8087 6.71366 25.1138 6.93446 25.3638 7.2107C25.6137 7.48694 25.8031 7.81249 25.9195 8.16638C26.036 8.52027 26.077 8.89463 26.04 9.26534L25.24 17.2653C25.1742 17.9234 24.8662 18.5334 24.3759 18.9772C23.8856 19.4209 23.2479 19.6667 22.5866 19.6667H9.85329C9.23658 19.6669 8.63886 19.4534 8.16188 19.0625C7.6849 18.6716 7.35816 18.1274 7.23729 17.5227L4.99995 6.33334Z" stroke="white" stroke-width="2" stroke-linejoin="round"/>
<path d="M19.6666 25H22.3333M4.99995 6.33333L3.91995 2.00933C3.84773 1.721 3.68122 1.46508 3.4469 1.28221C3.21257 1.09934 2.92386 1.00001 2.62662 1H0.999954L4.99995 6.33333ZM8.99995 25H11.6666H8.99995Z" stroke="white" stroke-width="2" stroke-linecap="round" stroke-linejoin="round"/>
</svg>
