<svg width="32" height="32" viewBox="0 0 32 32" fill="none" xmlns="http://www.w3.org/2000/svg">
<path d="M6.66663 9.33331H25.0533C25.4259 9.33333 25.7943 9.41141 26.1348 9.56252C26.4754 9.71363 26.7804 9.93443 27.0304 10.2107C27.2804 10.4869 27.4697 10.8125 27.5862 11.1663C27.7027 11.5202 27.7437 11.8946 27.7066 12.2653L26.9066 20.2653C26.8408 20.9233 26.5329 21.5334 26.0426 21.9771C25.5523 22.4209 24.9146 22.6666 24.2533 22.6666H11.52C10.9033 22.6669 10.3055 22.4534 9.82855 22.0625C9.35158 21.6715 9.02483 21.1274 8.90396 20.5226L6.66663 9.33331Z" stroke="#1D1D1D" stroke-width="2" stroke-linejoin="round"/>
<path d="M21.3333 28H24M6.66663 9.33333L5.58663 5.00933C5.5144 4.721 5.3479 4.46508 5.11357 4.28221C4.87924 4.09934 4.59053 4.00001 4.29329 4H2.66663L6.66663 9.33333ZM10.6666 28H13.3333H10.6666Z" stroke="#1D1D1D" stroke-width="2" stroke-linecap="round" stroke-linejoin="round"/>
</svg>
